<svg width="22" height="20" viewBox="0 0 22 20" fill="none" xmlns="http://www.w3.org/2000/svg">
<path d="M15.2499 0.5C14.0094 0.5 12.9999 1.5095 12.9999 2.75V3H1.74994C1.65056 2.99859 1.55188 3.01696 1.45966 3.05402C1.36743 3.09108 1.28349 3.1461 1.21271 3.21588C1.14194 3.28566 1.08573 3.36882 1.04737 3.46051C1.00901 3.5522 0.989258 3.65061 0.989258 3.75C0.989258 3.84939 1.00901 3.9478 1.04737 4.03949C1.08573 4.13118 1.14194 4.21434 1.21271 4.28412C1.28349 4.3539 1.36743 4.40892 1.45966 4.44598C1.55188 4.48304 1.65056 4.50141 1.74994 4.5H12.9999V4.75C12.9999 5.9905 14.0094 7 15.2499 7C16.4904 7 17.4999 5.9905 17.4999 4.75V4.5H20.2499C20.3493 4.50141 20.448 4.48304 20.5402 4.44598C20.6324 4.40892 20.7164 4.3539 20.7872 4.28412C20.8579 4.21434 20.9141 4.13118 20.9525 4.03949C20.9909 3.9478 21.0106 3.84939 21.0106 3.75C21.0106 3.65061 20.9909 3.5522 20.9525 3.46051C20.9141 3.36882 20.8579 3.28566 20.7872 3.21588C20.7164 3.1461 20.6324 3.09108 20.5402 3.05402C20.448 3.01696 20.3493 2.99859 20.2499 3H17.4999V2.75C17.4999 1.5095 16.4904 0.5 15.2499 0.5ZM6.74994 6.75C5.50944 6.75 4.49994 7.7595 4.49994 9V9.25H1.74994C1.65056 9.24859 1.55188 9.26696 1.45966 9.30402C1.36743 9.34108 1.28349 9.3961 1.21271 9.46588C1.14194 9.53566 1.08573 9.61882 1.04737 9.71051C1.00901 9.8022 0.989258 9.90061 0.989258 10C0.989258 10.0994 1.00901 10.1978 1.04737 10.2895C1.08573 10.3812 1.14194 10.4643 1.21271 10.5341C1.28349 10.6039 1.36743 10.6589 1.45966 10.696C1.55188 10.733 1.65056 10.7514 1.74994 10.75H4.49994V11C4.49994 12.2405 5.50944 13.25 6.74994 13.25C7.99044 13.25 8.99994 12.2405 8.99994 11V10.75H20.2499C20.3493 10.7514 20.448 10.733 20.5402 10.696C20.6324 10.6589 20.7164 10.6039 20.7872 10.5341C20.8579 10.4643 20.9141 10.3812 20.9525 10.2895C20.9909 10.1978 21.0106 10.0994 21.0106 10C21.0106 9.90061 20.9909 9.8022 20.9525 9.71051C20.9141 9.61882 20.8579 9.53566 20.7872 9.46588C20.7164 9.3961 20.6324 9.34108 20.5402 9.30402C20.448 9.26696 20.3493 9.24859 20.2499 9.25H8.99994V9C8.99994 7.7595 7.99044 6.75 6.74994 6.75ZM14.2499 13C13.0094 13 11.9999 14.0095 11.9999 15.25V15.5H1.74994C1.65056 15.4986 1.55188 15.517 1.45966 15.554C1.36743 15.5911 1.28349 15.6461 1.21271 15.7159C1.14194 15.7857 1.08573 15.8688 1.04737 15.9605C1.00901 16.0522 0.989258 16.1506 0.989258 16.25C0.989258 16.3494 1.00901 16.4478 1.04737 16.5395C1.08573 16.6312 1.14194 16.7143 1.21271 16.7841C1.28349 16.8539 1.36743 16.9089 1.45966 16.946C1.55188 16.983 1.65056 17.0014 1.74994 17H11.9999V17.25C11.9999 18.4905 13.0094 19.5 14.2499 19.5C15.4904 19.5 16.4999 18.4905 16.4999 17.25V17H20.2499C20.3493 17.0014 20.448 16.983 20.5402 16.946C20.6324 16.9089 20.7164 16.8539 20.7872 16.7841C20.8579 16.7143 20.9141 16.6312 20.9525 16.5395C20.9909 16.4478 21.0106 16.3494 21.0106 16.25C21.0106 16.1506 20.9909 16.0522 20.9525 15.9605C20.9141 15.8688 20.8579 15.7857 20.7872 15.7159C20.7164 15.6461 20.6324 15.5911 20.5402 15.554C20.448 15.517 20.3493 15.4986 20.2499 15.5H16.4999V15.25C16.4999 14.0095 15.4904 13 14.2499 13Z" fill="black"/>
</svg>
